<?xml version="1.0" encoding="UTF-8" standalone="no"?>
<!-- Created with Inkscape (http://www.inkscape.org/) -->

<svg
   xmlns:dc="http://purl.org/dc/elements/1.1/"
   xmlns:cc="http://creativecommons.org/ns#"
   xmlns:rdf="http://www.w3.org/1999/02/22-rdf-syntax-ns#"
   xmlns:svg="http://www.w3.org/2000/svg"
   xmlns="http://www.w3.org/2000/svg"
   xmlns:sodipodi="http://sodipodi.sourceforge.net/DTD/sodipodi-0.dtd"
   xmlns:inkscape="http://www.inkscape.org/namespaces/inkscape"
   width="134.4037mm"
   height="69.742462mm"
   viewBox="0 0 134.4037 69.742462"
   version="1.1"
   id="svg8"
   inkscape:version="0.92.4 (5da689c313, 2019-01-14)"
   sodipodi:docname="logo.svg">
  <defs
     id="defs2" />
  <sodipodi:namedview
     id="base"
     pagecolor="#ffffff"
     bordercolor="#666666"
     borderopacity="1.0"
     inkscape:pageopacity="0.0"
     inkscape:pageshadow="2"
     inkscape:zoom="2"
     inkscape:cx="159.84394"
     inkscape:cy="48.204624"
     inkscape:document-units="mm"
     inkscape:current-layer="layer1"
     showgrid="false"
     inkscape:window-width="3840"
     inkscape:window-height="2066"
     inkscape:window-x="3829"
     inkscape:window-y="-11"
     inkscape:window-maximized="1"
     fit-margin-top="0"
     fit-margin-left="0"
     fit-margin-right="0"
     fit-margin-bottom="0" />
  <metadata
     id="metadata5">
    <rdf:RDF>
      <cc:Work
         rdf:about="">
        <dc:format>image/svg+xml</dc:format>
        <dc:type
           rdf:resource="http://purl.org/dc/dcmitype/StillImage" />
        <dc:title></dc:title>
      </cc:Work>
    </rdf:RDF>
  </metadata>
  <g
     inkscape:label="Layer 1"
     inkscape:groupmode="layer"
     id="layer1"
     transform="translate(-4.8877029,-6.7576942)">
    <path
       inkscape:connector-curvature="0"
       style="fill:#18bcff;fill-opacity:1;stroke:none;stroke-width:3.2326839;stroke-linecap:round;stroke-miterlimit:4;stroke-dasharray:none;stroke-dashoffset:0;stroke-opacity:1"
       d="M 42.68643,9.9156412 A 31.71349,31.71349 0 0 0 10.97312,41.628951 31.71349,31.71349 0 0 0 42.68643,73.342259 31.71349,31.71349 0 0 0 74.400256,41.628951 31.71349,31.71349 0 0 0 42.68643,9.9156412 Z m 9.172049,18.7735308 c 3.590041,-0.05235 6.813359,3.74935 5.131988,7.409883 -0.409679,0.892613 -2.252599,2.829824 -2.717147,2.856673 -0.102552,0.0052 -0.683379,0.105974 -1.290878,0.222208 -1.355392,0.259395 -3.286855,-0.184071 -4.100007,-0.941544 -0.312182,-0.290665 -0.663644,-0.52865 -0.780833,-0.52865 -0.117198,0 -3.226134,1.680792 -6.909139,3.735173 -8.88252,4.954667 -8.874771,4.092935 -0.08113,9.240779 l 6.615102,3.872632 1.177189,-0.803052 c 0.900589,-0.614387 1.510364,-0.827236 2.592605,-0.904854 3.430375,-0.246063 5.826278,1.931522 5.804297,5.274614 -0.01037,1.757323 -0.434206,2.669638 -1.807126,3.899503 -1.488644,1.333524 -3.153156,1.690638 -5.09271,1.092441 h -0.0031 c -2.089176,-0.644348 -3.650382,-2.65875 -3.677812,-4.744932 l -0.01035,-0.989602 -6.653858,-3.858681 -6.654376,-3.858678 -1.095023,0.765329 c -0.998802,0.698063 -1.267398,0.765844 -3.049944,0.765844 -1.770115,0 -2.05549,-0.07036 -3.023071,-0.744657 -2.032595,-1.416468 -2.878774,-4.48384 -1.837097,-6.660575 1.457332,-3.045061 5.596996,-4.051152 8.094596,-1.967323 l 0.756025,0.630452 6.676596,-3.713986 6.676596,-3.7145 0.148828,-1.495515 c 0.185899,-1.874636 1.036304,-3.216569 2.621548,-4.137732 0.811733,-0.471688 1.659744,-0.689168 2.488215,-0.70125 z"
       id="path847-5-2" />
    <path
       style="fill:#18bcff;fill-opacity:1;stroke:none;stroke-width:12.21801758;stroke-linecap:round;stroke-miterlimit:4;stroke-dasharray:none;stroke-dashoffset:0;stroke-opacity:1"
       d="M 142.86133 11.935547 A 119.86201 119.86201 0 0 0 23 131.79688 A 119.86201 119.86201 0 0 0 142.86133 251.6582 A 119.86201 119.86201 0 0 0 262.72461 131.79688 A 119.86201 119.86201 0 0 0 142.86133 11.935547 z M 177.52734 82.890625 C 191.096 82.692748 203.27862 97.061397 196.92383 110.89648 C 195.37544 114.27014 188.41007 121.59188 186.6543 121.69336 C 186.2667 121.71301 184.07145 122.09389 181.77539 122.5332 C 176.65265 123.51359 169.35263 121.8375 166.2793 118.97461 C 165.0994 117.87603 163.77104 116.97656 163.32812 116.97656 C 162.88517 116.97656 151.13486 123.32916 137.21484 131.09375 C 103.64311 149.82005 103.6724 146.56311 136.9082 166.01953 L 161.91016 180.65625 L 166.35938 177.62109 C 169.76318 175.299 172.06784 174.49453 176.1582 174.20117 C 189.1234 173.27117 198.17878 181.50141 198.0957 194.13672 C 198.05655 200.77857 196.45461 204.22669 191.26562 208.875 C 185.63925 213.91509 179.34818 215.26481 172.01758 213.00391 L 172.00586 213.00391 C 164.10976 210.56858 158.20914 202.95509 158.10547 195.07031 L 158.06641 191.33008 L 132.91797 176.74609 L 107.76758 162.16211 L 103.62891 165.05469 C 99.853907 167.69304 98.838744 167.94922 92.101562 167.94922 C 85.411364 167.94922 84.33278 167.6833 80.675781 165.13477 C 72.993532 159.78119 69.795375 148.18797 73.732422 139.96094 C 79.240448 128.45205 94.886424 124.6495 104.32617 132.52539 L 107.18359 134.9082 L 132.41797 120.87109 L 157.65234 106.83203 L 158.21484 101.17969 C 158.91745 94.094453 162.13158 89.022577 168.12305 85.541016 C 171.19102 83.75826 174.39611 82.936289 177.52734 82.890625 z "
       id="path847"
       transform="matrix(0.26458333,0,0,0.26458333,4.8877029,6.7576942)" />
    <path
       style="fill:#18bcff;fill-opacity:1;stroke:none;stroke-width:2.27637744;stroke-linecap:round;stroke-miterlimit:4;stroke-dasharray:none;stroke-dashoffset:0;stroke-opacity:1"
       d="M 177.52734 82.890625 C 176.36412 82.907589 175.19037 83.032746 174.01758 83.273438 L 174.01758 98.066406 C 174.01758 101.91599 176.74202 105.01367 180.14258 105.01367 C 183.53131 105.01367 186.26758 101.91458 186.26758 98.066406 L 186.26758 84.796875 C 183.55305 83.541504 180.5765 82.846162 177.52734 82.890625 z M 91.949219 128.38281 C 90.27375 128.42888 88.598544 128.68701 86.966797 129.13281 L 86.966797 139.83203 C 86.966797 143.68162 89.691243 146.7793 93.091797 146.7793 C 96.480529 146.7793 99.216797 143.68017 99.216797 139.83203 L 99.216797 129.56836 C 96.898273 128.70146 94.425803 128.31471 91.949219 128.38281 z M 178.54297 174.13281 C 177.76447 174.12053 176.96853 174.14305 176.1582 174.20117 C 175.3818 174.25686 174.68503 174.34006 174.01758 174.43945 L 174.01758 188.99414 C 174.01758 192.84372 176.74202 195.94141 180.14258 195.94141 C 183.53131 195.94141 186.26758 192.84231 186.26758 188.99414 L 186.26758 175.57031 C 183.94738 174.67709 181.35527 174.17717 178.54297 174.13281 z "
       id="rect843"
       transform="matrix(0.26458333,0,0,0.26458333,4.8877029,6.7576942)" />
    <g
       aria-label="diazo"
       style="font-style:normal;font-variant:normal;font-weight:normal;font-stretch:normal;font-size:30.57317352px;line-height:1.25;font-family:'Bebas Neue';-inkscape-font-specification:'Bebas Neue, Normal';font-variant-ligatures:normal;font-variant-caps:normal;font-variant-numeric:normal;font-feature-settings:normal;text-align:start;letter-spacing:0px;word-spacing:0px;writing-mode:lr-tb;text-anchor:start;fill:#18bcff;fill-opacity:1;stroke:none;stroke-width:0.76432157"
       id="text817-5">
      <path
         d="m 81.559302,51.614811 h 5.136293 c 3.363049,0 5.014,-1.864964 5.014,-5.289159 V 35.502748 c 0,-3.424195 -1.650951,-5.289159 -5.014,-5.289159 h -5.136293 z m 3.363049,-3.057317 V 33.270907 h 1.712097 c 1.070061,0 1.712098,0.550317 1.712098,2.078976 v 11.128635 c 0,1.528658 -0.642037,2.078976 -1.712098,2.078976 z"
         style="font-style:normal;font-variant:normal;font-weight:normal;font-stretch:normal;font-size:30.57317352px;font-family:'Bebas Neue';-inkscape-font-specification:'Bebas Neue, Normal';font-variant-ligatures:normal;font-variant-caps:normal;font-variant-numeric:normal;font-feature-settings:normal;text-align:start;writing-mode:lr-tb;text-anchor:start;stroke-width:0.76432157;fill:#18bcff;fill-opacity:1"
         id="path952" />
      <path
         d="m 93.979653,51.614811 h 3.36305 V 30.213589 h -3.36305 z"
         style="font-style:normal;font-variant:normal;font-weight:normal;font-stretch:normal;font-size:30.57317352px;font-family:'Bebas Neue';-inkscape-font-specification:'Bebas Neue, Normal';font-variant-ligatures:normal;font-variant-caps:normal;font-variant-numeric:normal;font-feature-settings:normal;text-align:start;writing-mode:lr-tb;text-anchor:start;stroke-width:0.76432157;fill:#18bcff;fill-opacity:1"
         id="path954" />
      <path
         d="m 98.944927,51.614811 h 3.118463 l 0.61146,-4.188525 h 3.82165 v -0.06115 l 0.61146,4.249671 h 3.36305 l -3.48534,-21.401222 h -4.5554 z m 4.127383,-7.092976 1.46751,-10.578318 h 0.0611 l 1.49809,10.578318 z"
         style="font-style:normal;font-variant:normal;font-weight:normal;font-stretch:normal;font-size:30.57317352px;font-family:'Bebas Neue';-inkscape-font-specification:'Bebas Neue, Normal';font-variant-ligatures:normal;font-variant-caps:normal;font-variant-numeric:normal;font-feature-settings:normal;text-align:start;writing-mode:lr-tb;text-anchor:start;stroke-width:0.76432157;fill:#18bcff;fill-opacity:1"
         id="path956" />
      <path
         d="m 111.51958,51.614811 h 9.84456 v -3.057317 h -6.23693 l 6.23693,-15.347734 v -2.996171 h -9.53883 v 3.057318 h 5.9312 l -6.23693,15.347733 z"
         style="font-style:normal;font-variant:normal;font-weight:normal;font-stretch:normal;font-size:30.57317352px;font-family:'Bebas Neue';-inkscape-font-specification:'Bebas Neue, Normal';font-variant-ligatures:normal;font-variant-caps:normal;font-variant-numeric:normal;font-feature-settings:normal;text-align:start;writing-mode:lr-tb;text-anchor:start;stroke-width:0.76432157;fill:#18bcff;fill-opacity:1"
         id="path958" />
      <path
         d="m 128.10027,51.920543 c 3.3019,0 5.10572,-1.956683 5.10572,-5.380879 V 35.288736 c 0,-3.424195 -1.80382,-5.380878 -5.10572,-5.380878 -3.3019,0 -5.10572,1.956683 -5.10572,5.380878 v 11.250928 c 0,3.424196 1.80382,5.380879 5.10572,5.380879 z m 0,-3.057318 c -1.07006,0 -1.74267,-0.58089 -1.74267,-2.109549 V 35.074724 c 0,-1.528659 0.67261,-2.109549 1.74267,-2.109549 1.07006,0 1.74267,0.58089 1.74267,2.109549 v 11.678952 c 0,1.528659 -0.67261,2.109549 -1.74267,2.109549 z"
         style="font-style:normal;font-variant:normal;font-weight:normal;font-stretch:normal;font-size:30.57317352px;font-family:'Bebas Neue';-inkscape-font-specification:'Bebas Neue, Normal';font-variant-ligatures:normal;font-variant-caps:normal;font-variant-numeric:normal;font-feature-settings:normal;text-align:start;writing-mode:lr-tb;text-anchor:start;stroke-width:0.76432157;fill:#18bcff;fill-opacity:1"
         id="path960" />
    </g>
    <path
       style="fill:#0083b8;fill-opacity:1;stroke:none;stroke-width:2.27637744;stroke-linecap:round;stroke-miterlimit:4;stroke-dasharray:none;stroke-dashoffset:0;stroke-opacity:1"
       d="M 180.14258 39.486328 C 176.75385 39.486328 174.01758 42.585419 174.01758 46.433594 L 174.01758 83.273438 C 175.19037 83.032746 176.36412 82.907589 177.52734 82.890625 C 180.5765 82.846162 183.55305 83.541504 186.26758 84.796875 L 186.26758 46.433594 C 186.26758 42.584005 183.52998 39.486328 180.14258 39.486328 z M 93.091797 111.5625 C 89.703065 111.5625 86.966797 114.66159 86.966797 118.50977 L 86.966797 129.13281 C 91.010502 128.02805 95.329735 128.11498 99.216797 129.56836 L 99.216797 118.50977 C 99.216797 114.66018 96.479195 111.5625 93.091797 111.5625 z M 180.14258 140.51758 C 176.75385 140.51758 174.01758 143.61663 174.01758 147.46484 L 174.01758 174.43945 C 174.68503 174.34006 175.3818 174.25686 176.1582 174.20117 C 179.89578 173.93307 183.30511 174.42983 186.26758 175.57031 L 186.26758 147.46484 C 186.26758 143.61522 183.52998 140.51758 180.14258 140.51758 z "
       id="rect843-3"
       transform="matrix(0.26458333,0,0,0.26458333,4.8877029,6.7576942)" />
  </g>
</svg>
