<?xml version="1.0" encoding="UTF-8" standalone="no"?>
<!-- Created with Inkscape (http://www.inkscape.org/) -->

<svg
   xmlns:dc="http://purl.org/dc/elements/1.1/"
   xmlns:cc="http://creativecommons.org/ns#"
   xmlns:rdf="http://www.w3.org/1999/02/22-rdf-syntax-ns#"
   xmlns:svg="http://www.w3.org/2000/svg"
   xmlns="http://www.w3.org/2000/svg"
   xmlns:sodipodi="http://sodipodi.sourceforge.net/DTD/sodipodi-0.dtd"
   xmlns:inkscape="http://www.inkscape.org/namespaces/inkscape"
   width="134.4037mm"
   height="69.742462mm"
   viewBox="0 0 134.4037 69.742462"
   version="1.1"
   id="svg8"
   inkscape:version="0.92.4 (5da689c313, 2019-01-14)"
   sodipodi:docname="logo.svg">
  <defs
     id="defs2" />
  <sodipodi:namedview
     id="base"
     pagecolor="#ffffff"
     bordercolor="#666666"
     borderopacity="1.0"
     inkscape:pageopacity="0.0"
     inkscape:pageshadow="2"
     inkscape:zoom="1"
     inkscape:cx="27.408704"
     inkscape:cy="-404.86604"
     inkscape:document-units="mm"
     inkscape:current-layer="layer1"
     showgrid="false"
     inkscape:window-width="3840"
     inkscape:window-height="2066"
     inkscape:window-x="3829"
     inkscape:window-y="-11"
     inkscape:window-maximized="1"
     fit-margin-top="0"
     fit-margin-left="0"
     fit-margin-right="0"
     fit-margin-bottom="0" />
  <metadata
     id="metadata5">
    <rdf:RDF>
      <cc:Work
         rdf:about="">
        <dc:format>image/svg+xml</dc:format>
        <dc:type
           rdf:resource="http://purl.org/dc/dcmitype/StillImage" />
        <dc:title></dc:title>
      </cc:Work>
    </rdf:RDF>
  </metadata>
  <g
     inkscape:label="Layer 1"
     inkscape:groupmode="layer"
     id="layer1"
     transform="translate(-4.8877029,-6.7576942)">
    <circle
       style="fill:#18bcff;fill-opacity:1;stroke:none;stroke-width:3.2326839;stroke-linecap:round;stroke-miterlimit:4;stroke-dasharray:none;stroke-dashoffset:0;stroke-opacity:1"
       id="path847"
       cx="42.686611"
       cy="41.628925"
       r="31.713491" />
    <path
       style="fill:#000000;stroke-width:0.24850947"
       d="M 50.397795,63.114801 C 48.30862,62.470455 46.74743,60.456454 46.720001,58.370272 l -0.01036,-0.989821 -6.654135,-3.858679 -6.654125,-3.858679 -1.095283,0.765472 c -0.998802,0.698065 -1.267342,0.76547 -3.049888,0.76547 -1.770115,0 -2.055633,-0.07034 -3.023214,-0.74464 -2.032595,-1.416467 -2.878378,-4.483726 -1.836701,-6.660463 1.457332,-3.045061 5.596993,-4.051197 8.094593,-1.967367 l 0.755765,0.630507 6.676602,-3.714102 6.676718,-3.714092 0.148513,-1.495494 c 0.185898,-1.874635 1.036476,-3.216922 2.621719,-4.138085 4.329247,-2.515666 9.68977,2.203619 7.62039,6.708891 -0.409679,0.892614 -2.252544,2.829681 -2.717092,2.856531 -0.102552,0.0052 -0.683471,0.105929 -1.290971,0.222164 -1.355392,0.259394 -3.287165,-0.18423 -4.100318,-0.941704 -0.312182,-0.290666 -0.66322,-0.528566 -0.780408,-0.528566 -0.117198,0 -3.22639,1.680864 -6.909395,3.735244 -8.882522,4.954667 -8.874949,4.093088 -0.08131,9.240934 l 6.615082,3.872508 1.177471,-0.80328 c 0.90059,-0.614388 1.510172,-0.827147 2.592413,-0.904765 3.430375,-0.246062 5.826688,1.931432 5.804706,5.274525 -0.01036,1.757322 -0.434425,2.6697 -1.807344,3.899565 -1.488646,1.333524 -3.153392,1.690611 -5.092946,1.092413 z"
       id="path841"
       inkscape:connector-curvature="0" />
    <path
       style="fill:#000000;fill-opacity:0.43579766;stroke:none;stroke-width:0.60229152;stroke-linecap:round;stroke-miterlimit:4;stroke-dasharray:none;stroke-dashoffset:0;stroke-opacity:1"
       d="m 52.550272,17.205263 c 0.896251,0 1.620545,0.819643 1.620545,1.83818 v 13.660809 c 0,1.018162 -0.723942,1.838182 -1.620545,1.838182 -0.899731,0 -1.620544,-0.819647 -1.620544,-1.838182 V 19.043443 c 0,-1.018163 0.723942,-1.83818 1.620544,-1.83818 z"
       id="rect843"
       inkscape:connector-curvature="0"
       sodipodi:nodetypes="sssssss" />
    <path
       style="fill:#000000;fill-opacity:0.43579766;stroke:none;stroke-width:0.60229152;stroke-linecap:round;stroke-miterlimit:4;stroke-dasharray:none;stroke-dashoffset:0;stroke-opacity:1"
       d="m 52.550272,43.936482 c 0.896251,0 1.620545,0.819636 1.620545,1.838182 v 10.987691 c 0,1.018162 -0.723942,1.838171 -1.620545,1.838171 -0.899731,0 -1.620544,-0.819636 -1.620544,-1.838171 V 45.774664 c 0,-1.018172 0.723942,-1.838182 1.620544,-1.838182 z"
       id="rect843-5"
       inkscape:connector-curvature="0"
       sodipodi:nodetypes="sssssss" />
    <path
       style="fill:#000000;fill-opacity:0.43579766;stroke:none;stroke-width:0.60229152;stroke-linecap:round;stroke-miterlimit:4;stroke-dasharray:none;stroke-dashoffset:0;stroke-opacity:1"
       d="m 29.518443,36.275113 c 0.89625,0 1.620545,0.819647 1.620545,1.838183 v 5.641451 c 0,1.018153 -0.723943,1.838183 -1.620545,1.838183 -0.89973,0 -1.620545,-0.819647 -1.620545,-1.838183 v -5.641451 c 0,-1.018163 0.723943,-1.838183 1.620545,-1.838183 z"
       id="rect843-5-9"
       inkscape:connector-curvature="0"
       sodipodi:nodetypes="sssssss" />
    <g
       aria-label="diazo"
       style="font-style:normal;font-variant:normal;font-weight:normal;font-stretch:normal;font-size:30.57317352px;line-height:1.25;font-family:'Bebas Neue';-inkscape-font-specification:'Bebas Neue, Normal';font-variant-ligatures:normal;font-variant-caps:normal;font-variant-numeric:normal;font-feature-settings:normal;text-align:start;letter-spacing:0px;word-spacing:0px;writing-mode:lr-tb;text-anchor:start;fill:#18bcff;fill-opacity:1;stroke:none;stroke-width:0.76432157"
       id="text817-5">
      <path
         d="m 81.559302,51.614811 h 5.136293 c 3.363049,0 5.014,-1.864964 5.014,-5.289159 V 35.502748 c 0,-3.424195 -1.650951,-5.289159 -5.014,-5.289159 h -5.136293 z m 3.363049,-3.057317 V 33.270907 h 1.712097 c 1.070061,0 1.712098,0.550317 1.712098,2.078976 v 11.128635 c 0,1.528658 -0.642037,2.078976 -1.712098,2.078976 z"
         style="font-style:normal;font-variant:normal;font-weight:normal;font-stretch:normal;font-size:30.57317352px;font-family:'Bebas Neue';-inkscape-font-specification:'Bebas Neue, Normal';font-variant-ligatures:normal;font-variant-caps:normal;font-variant-numeric:normal;font-feature-settings:normal;text-align:start;writing-mode:lr-tb;text-anchor:start;stroke-width:0.76432157;fill:#18bcff;fill-opacity:1"
         id="path952" />
      <path
         d="m 93.979653,51.614811 h 3.36305 V 30.213589 h -3.36305 z"
         style="font-style:normal;font-variant:normal;font-weight:normal;font-stretch:normal;font-size:30.57317352px;font-family:'Bebas Neue';-inkscape-font-specification:'Bebas Neue, Normal';font-variant-ligatures:normal;font-variant-caps:normal;font-variant-numeric:normal;font-feature-settings:normal;text-align:start;writing-mode:lr-tb;text-anchor:start;stroke-width:0.76432157;fill:#18bcff;fill-opacity:1"
         id="path954" />
      <path
         d="m 98.944927,51.614811 h 3.118463 l 0.61146,-4.188525 h 3.82165 v -0.06115 l 0.61146,4.249671 h 3.36305 l -3.48534,-21.401222 h -4.5554 z m 4.127383,-7.092976 1.46751,-10.578318 h 0.0611 l 1.49809,10.578318 z"
         style="font-style:normal;font-variant:normal;font-weight:normal;font-stretch:normal;font-size:30.57317352px;font-family:'Bebas Neue';-inkscape-font-specification:'Bebas Neue, Normal';font-variant-ligatures:normal;font-variant-caps:normal;font-variant-numeric:normal;font-feature-settings:normal;text-align:start;writing-mode:lr-tb;text-anchor:start;stroke-width:0.76432157;fill:#18bcff;fill-opacity:1"
         id="path956" />
      <path
         d="m 111.51958,51.614811 h 9.84456 v -3.057317 h -6.23693 l 6.23693,-15.347734 v -2.996171 h -9.53883 v 3.057318 h 5.9312 l -6.23693,15.347733 z"
         style="font-style:normal;font-variant:normal;font-weight:normal;font-stretch:normal;font-size:30.57317352px;font-family:'Bebas Neue';-inkscape-font-specification:'Bebas Neue, Normal';font-variant-ligatures:normal;font-variant-caps:normal;font-variant-numeric:normal;font-feature-settings:normal;text-align:start;writing-mode:lr-tb;text-anchor:start;stroke-width:0.76432157;fill:#18bcff;fill-opacity:1"
         id="path958" />
      <path
         d="m 128.10027,51.920543 c 3.3019,0 5.10572,-1.956683 5.10572,-5.380879 V 35.288736 c 0,-3.424195 -1.80382,-5.380878 -5.10572,-5.380878 -3.3019,0 -5.10572,1.956683 -5.10572,5.380878 v 11.250928 c 0,3.424196 1.80382,5.380879 5.10572,5.380879 z m 0,-3.057318 c -1.07006,0 -1.74267,-0.58089 -1.74267,-2.109549 V 35.074724 c 0,-1.528659 0.67261,-2.109549 1.74267,-2.109549 1.07006,0 1.74267,0.58089 1.74267,2.109549 v 11.678952 c 0,1.528659 -0.67261,2.109549 -1.74267,2.109549 z"
         style="font-style:normal;font-variant:normal;font-weight:normal;font-stretch:normal;font-size:30.57317352px;font-family:'Bebas Neue';-inkscape-font-specification:'Bebas Neue, Normal';font-variant-ligatures:normal;font-variant-caps:normal;font-variant-numeric:normal;font-feature-settings:normal;text-align:start;writing-mode:lr-tb;text-anchor:start;stroke-width:0.76432157;fill:#18bcff;fill-opacity:1"
         id="path960" />
    </g>
  </g>
</svg>
